# AST/ASF file generated using VICON BodyLanguage
# -----------------------------------------------
:version 1.10
:name VICON
:units
  mass 1.0
  length 0.45
  angle deg
:documentation
   .ast/.asf automatically generated from VICON data using
   VICON BodyBuilder and BodyLanguage model FoxedUp or BRILLIANT.MOD
:root
   order TX TY TZ RX RY RZ
   axis XYZ
   position 0 0 0  
   orientation 0 0 0 
:bonedata
  begin
     id 1 
     name lhipjoint
     direction 0.78388 -0.462562 0.414208 
     length 3.01181 
     axis 0 0 0  XYZ
  end
  begin
     id 2 
     name lfemur
     direction 0.34202 -0.939693 0  
     length 6.04673  
     axis 0 0 20  XYZ
    dof rx ry rz
    limits (-160.0 20.0)
           (-70.0 70.0)
           (-60.0 70.0)
  end
  begin
     id 3 
     name ltibia
     direction 0.34202 -0.939693 0   
     length 7.211   
     axis 0 0 20   XYZ
    dof rx
    limits (-10.0 170.0)
  end
  begin
     id 4 
     name lfoot
     direction 0.121887 -0.334882 0.934344   
     length 2.13567   
     axis -90 7.62852e-016 20   XYZ
    dof rx rz
    limits (-45.0 90.0)
           (-70.0 20.0)
  end
  begin
     id 5 
     name ltoes
     direction 1.53555e-011 -4.2179e-011 1   
     length 1.05957   
     axis -90 7.62852e-016 20   XYZ
    dof rx
    limits (-90.0 20.0)
  end
  begin
     id 6 
     name rhipjoint
     direction -0.769387 -0.475875 0.426129   
     length 2.92756  
     axis 0 0 0  XYZ 
  end
  begin
     id 7 
     name rfemur
     direction -0.34202 -0.939693 0   
     length 6.35468   
     axis 0 0 -20   XYZ
    dof rx ry rz
    limits (-160.0 20.0)
           (-70.0 70.0)
           (-70.0 60.0)
  end
  begin
     id 8 
     name rtibia
     direction -0.34202 -0.939693 0   
     length 7.37886   
     axis 0 0 -20   XYZ
    dof rx
    limits (-10.0 170.0)
 end
 begin
     id 9 
     name rfoot
     direction -0.101763 -0.279592 0.954711   
     length 2.21478  
     axis -90 -7.62852e-016 -20   XYZ
    dof rx rz
    limits (-45.0 90.0)
           (-20.0 70.0)
  end
  begin
     id 10 
     name rtoes
     direction -1.53494e-011 -4.21851e-011 1   
     length 1.10506   
     axis -90 -7.62852e-016 -20   XYZ
    dof rx
    limits (-90.0 20.0)
  end
  begin
     id 11 
     name lowerback
     direction 0.00747405 0.999267 0.0375481   
     length 2.13259   
     axis 0 0 0   XYZ
    dof rx ry rz
    limits (-20.0 45.0)
           (-30.0 30.0)
           (-30.0 30.0)
  end
  begin
     id 12 
     name upperback
     direction 0.00661626 0.996177 0.0871029   
     length 2.10528   
     axis 0 0 0   XYZ
    dof rx ry rz
    limits (-20.0 45.0)
           (-30.0 30.0)
           (-30.0 30.0)
  end
  begin
     id 13 
     name thorax
     direction 0.00320659 0.997679 0.0680167   
     length 2.11338   
     axis 0 0 0   XYZ
    dof rx ry rz
    limits (-20.0 45.0)
           (-30.0 30.0)
           (-30.0 30.0)
  end
  begin
     id 14 
     name lowerneck
     direction 0.0374841 0.973033 0.227602   
     length 1.42765   
     axis 0 0 0   XYZ
    dof rx ry rz
    limits (-20.0 45.0)
           (-30.0 30.0)
           (-30.0 30.0)
  end
  begin
     id 15 
     name upperneck
     direction 0.00481585 0.989155 -0.146795   
     length 1.47593   
     axis 0 0 0   XYZ
    dof rx ry rz
    limits (-20.0 45.0)
           (-30.0 30.0)
           (-30.0 30.0)
  end
  begin
     id 16
     name head
     direction -0.00292522 0.997206 -0.0746423  
     length 1.48116  
     axis 0 0 0   XYZ
    dof rx ry rz
    limits (-20.0 45.0)
           (-30.0 30.0)
           (-30.0 30.0)
  end
  begin
     id 17 
     name lclavicle
     direction 0.951444 0.305606 0.0368784  
     length 3.01855  
     axis 0 0 0   XYZ
    dof ry rz
    limits (-20.0 10.0)
           (0.0 20.0)
  end
  begin
     id 18 
     name lhumerus
     direction 1 -4.48977e-011 2.61664e-027   
     length 5.52731   
     axis 180 -30 -90   XYZ
    dof rx ry rz
    limits (-60.0 90.0)
           (-90.0 90.0)
           (-90.0 90.0)
  end
  begin
     id 19
     name lradius
     direction 1 -4.48944e-011 8.22157e-027   
     length 3.11059   
     axis 180 -30 -90   XYZ
    dof rx
    limits (-10.0 170.0)
  end
  begin
     id 20
     name lwrist
     direction 1 -4.48976e-011 1.5779e-026   
     length 1.5553   
     axis -1.15221e-014 90 90   XYZ
    dof ry
    limits (-180.0 0.0)
 end
  begin
     id 21 
     name lhand
     direction 1 -4.49025e-011 3.1558e-026   
     length 0.419626   
     axis -2.01367e-014 90 90   XYZ
    dof rx rz
    limits (-90.0 90.0)
           (-45.0 45.0)
  end
  begin
     id 22 
     name lfingers
     direction 1 -4.4904e-011 6.31161e-026   
     length 0.338313   
     axis -4.02734e-014 90 90   XYZ
    dof rx
    limits (0.0 90.0)
  end
  begin
     id 23
     name lthumb
     direction 0.707107 -6.35004e-011 0.707107   
     length 0.485752   
     axis -90 45 2.85299e-015   XYZ
    dof rx rz
    limits (-45.0 45.0)
           (-45.0 45.0)
  end
  begin
     id 24 
     name rclavicle
     direction -0.968876 0.223791 0.105816   
     length 3.04177  
     axis 0 0 0   XYZ 
    dof ry rz
    limits (-10.0 20.0)
           (-20.0 0.0)
  end
  begin
     id 25 
     name rhumerus
     direction -1 -4.48962e-011 -1.01384e-027  
     length 5.25396   
     axis 180 30 90   XYZ
    dof rx ry rz
    limits (-90.0 60.0)
           (-90.0 90.0)
           (-90.0 90.0)
  end
  begin
     id 26 
     name rradius
     direction -1 -4.48955e-011 8.88542e-027   
     length 3.10567   
     axis 180 30 90   XYZ
    dof rx
    limits (-10.0 170.0)
  end
  begin
     id 27 
     name rwrist
     direction -1 -4.48994e-011 1.5779e-026   
     length 1.55283   
     axis -1.15221e-014 -90 -90   XYZ
    dof ry
    limits (-180.0 0.0)
  end
  begin
     id 28
     name rhand
     direction -1 -4.48891e-011 3.1558e-026   
     length 0.498676   
     axis -2.01367e-014 -90 -90   XYZ
    dof rx rz
    limits (-90.0 90.0)
           (-45.0 45.0)
  end
  begin
     id 29
     name rfingers
     direction -1 -4.48972e-011 6.31161e-026   
     length 0.402045   
     axis -4.02734e-014 -90 -90   XYZ
    dof rx
    limits (0.0 90.0)
  end
  begin
     id 30
     name rthumb
     direction -0.707107 -6.34849e-011 0.707107   
     length 0.577259   
     axis -90 -45 -2.85299e-015   XYZ
    dof rx rz
    limits (-45.0 45.0)
           (-45.0 45.0)
  end
:hierarchy
  begin
    root lhipjoint rhipjoint lowerback
    lhipjoint lfemur
    lfemur ltibia
    ltibia lfoot
    lfoot ltoes
    rhipjoint rfemur
    rfemur rtibia
    rtibia rfoot
    rfoot rtoes
    lowerback upperback
    upperback thorax
    thorax lowerneck lclavicle rclavicle
    lowerneck upperneck
    upperneck head
    lclavicle lhumerus
    lhumerus lradius
    lradius lwrist
    lwrist lhand lthumb
    lhand lfingers
    rclavicle rhumerus
    rhumerus rradius
    rradius rwrist
    rwrist rhand rthumb
    rhand rfingers
  end

#!OML:ASF H:\Pregnant\Project 1\Capture day 1\Session 1\femalepreg.ASF
:FULLY-SPECIFIED
:DEGREES
273
root 4.8738 15.82 24.431 -153.736 6.3746 -170.861
lowerback -7.01767 0.703413 -2.0927
upperback -4.03825 1.46468 4.25395
thorax -0.405783 1.00282 5.68921
lowerneck -28.1382 4.01016 7.64506
upperneck 36.2311 9.35302 -10.0282
head 19.801 4.00848 -3.65087
rclavicle 2.26118e-014 3.07619e-014
rhumerus -44.3534 -9.58981 -60.513
rradius 49.292
rwrist -5.8567
rhand -11.1424 -17.2644
rfingers 7.12502
rthumb 14.8833 -46.7098
lclavicle 2.26118e-014 3.07619e-014
lhumerus -32.5967 -21.958 88.7175
lradius 29.5375
lwrist 37.22
lhand -22.6834 0.859113
lfingers 7.12502
lthumb 3.7488 30.8059
rfemur -82.2747 9.12084 18.8084
rtibia 58.8187
rfoot -9.23133 -4.29857
rtoes -4.67211
lfemur -30.0977 -6.70702 -10.8073
ltibia 23.2368
lfoot -12.6368 8.5438
ltoes -39.3731
274
root 4.89099 15.8131 24.3583 -153.775 6.13168 -171.018
lowerback -7.05224 0.682595 -1.84524
upperback -4.07894 1.44843 4.46221
thorax -0.426852 1.00532 5.76685
lowerneck -28.0782 3.99859 7.69692
upperneck 36.2273 9.43043 -10.2278
head 19.8197 4.02955 -3.73835
rclavicle 1.28278e-014 4.76338e-014
rhumerus -44.3786 -9.65035 -60.3459
rradius 49.2068
rwrist -5.75982
rhand -10.9216 -17.2747
rfingers 7.12502
rthumb 15.096 -46.7042
lclavicle 1.28278e-014 4.76338e-014
lhumerus -33.5312 -22.2177 89.1398
lradius 29.5266
lwrist 36.9437
lhand -22.3108 1.07376
lfingers 7.12502
lthumb 4.10861 31.0139
rfemur -81.8805 8.90813 18.845
rtibia 58.8131
rfoot -9.19513 -4.29277
rtoes -4.37622
lfemur -29.7748 -6.88934 -10.9213
ltibia 23.097
lfoot -12.7706 8.50933
ltoes -39.4872
275
root 4.90889 15.8055 24.2842 -153.813 5.89397 -171.19
lowerback -7.10086 0.666332 -1.58846
upperback -4.12356 1.43893 4.6563
thorax -0.444498 1.0113 5.82508
lowerneck -28.003 3.97026 7.71082
upperneck 36.2118 9.47799 -10.3888
head 19.8161 4.03846 -3.80704
rclavicle 4.82053e-015 -1.30204e-014
rhumerus -44.4152 -9.73434 -60.1843
rradius 49.1034
rwrist -5.65878
rhand -10.6534 -17.2823
rfingers 7.12502
rthumb 15.3544 -46.6922
lclavicle 4.82053e-015 -1.30204e-014
lhumerus -34.4596 -22.4149 89.5091
lradius 29.5574
lwrist 36.7675
lhand -21.9725 1.28845
lfingers 7.12502
lthumb 4.43529 31.222
rfemur -81.4778 8.6759 18.9321
rtibia 58.8892
rfoot -9.21067 -4.2395
rtoes -4.06066
lfemur -29.4536 -7.08636 -11.0457
ltibia 22.9694
lfoot -12.8968 8.49372
ltoes -39.6492
276
root 4.92755 15.7972 24.2088 -153.839 5.66396 -171.376
lowerback -7.16826 0.65186 -1.32862
upperback -4.18002 1.43382 4.839
thorax -0.46431 1.02036 5.87027
lowerneck -27.9053 3.93249 7.70672
upperneck 36.1864 9.51158 -10.5344
head 19.7953 4.0422 -3.86775
rclavicle -1.88845e-014 9.14409e-015
rhumerus -44.4709 -9.82274 -60.0289
rradius 48.9894
rwrist -5.56584
rhand -10.3408 -17.2516
rfingers 7.12502
rthumb 15.6554 -46.6382
lclavicle -1.88845e-014 9.14409e-015
lhumerus -35.389 -22.5372 89.8228
lradius 29.6268
lwrist 36.6795
lhand -21.685 1.46581
lfingers 7.12502
lthumb 4.71296 31.3934
rfemur -81.0759 8.42968 19.0553
rtibia 59.0245
rfoot -9.26812 -4.13116
rtoes -3.71767
lfemur -29.1418 -7.28862 -11.1825
ltibia 22.848
lfoot -13.0143 8.48485
ltoes -39.8518
277
root 4.94695 15.7874 24.1319 -153.851 5.44443 -171.581
lowerback -7.25833 0.64125 -1.06817
upperback -4.24488 1.4351 5.00713
thorax -0.480769 1.03305 5.90074
lowerneck -27.8216 3.89849 7.71271
upperneck 36.1711 9.55085 -10.685
head 19.7868 4.04926 -3.93169
rclavicle 1.11319e-014 5.68524e-014
rhumerus -44.5356 -9.92931 -59.879
rradius 48.8559
rwrist -5.47591
rhand -9.99334 -17.1879
rfingers 7.12502
rthumb 15.9901 -46.548
lclavicle 1.11319e-014 5.68524e-014
lhumerus -36.3059 -22.5838 90.0687
lradius 29.7308
lwrist 36.6615
lhand -21.4511 1.62774
lfingers 7.12502
lthumb 4.9388 31.5502
rfemur -80.6797 8.16968 19.2042
rtibia 59.1993
rfoot -9.37049 -3.96588
rtoes -3.37387
lfemur -28.8363 -7.49218 -11.3365
ltibia 22.7214
lfoot -13.1204 8.47012
ltoes -40.0752
278
root 4.96715 15.7773 24.0535 -153.85 5.23486 -171.809
lowerback -7.36676 0.631983 -0.811291
upperback -4.32258 1.43981 5.16001
thorax -0.500625 1.04818 5.91779
lowerneck -27.7262 3.8631 7.72178
upperneck 36.1545 9.5899 -10.8385
head 19.775 4.05744 -3.99751
rclavicle -5.96354e-015 4.96962e-014
rhumerus -44.6238 -10.0395 -59.7359
rradius 48.7113
rwrist -5.39417
rhand -9.62551 -17.1031
rfingers 7.12502
rthumb 16.3442 -46.4344
lclavicle -5.96354e-015 4.96962e-014
lhumerus -37.2185 -22.5603 90.2487
lradius 29.8605
lwrist 36.701
lhand -21.2702 1.75917
lfingers 7.12502
lthumb 5.11346 31.6775
rfemur -80.2835 7.90394 19.3544
rtibia 59.3935
rfoot -9.49669 -3.72135
rtoes -3.12981
lfemur -28.5231 -7.70519 -11.5102
ltibia 22.5629
lfoot -13.1976 8.44832
ltoes -40.33
